<svg width="60" height="60" viewBox="0 0 60 60" fill="none" xmlns="http://www.w3.org/2000/svg">
<path d="M13.125 0C13.6223 0 14.0992 0.197544 14.4508 0.549175C14.8025 0.900806 15 1.37772 15 1.875V3.75H45V1.875C45 1.37772 45.1975 0.900806 45.5492 0.549175C45.9008 0.197544 46.3777 0 46.875 0C47.3723 0 47.8492 0.197544 48.2008 0.549175C48.5525 0.900806 48.75 1.37772 48.75 1.875V3.75H52.5C54.4891 3.75 56.3968 4.54018 57.8033 5.9467C59.2098 7.35322 60 9.26088 60 11.25V52.5C60 54.4891 59.2098 56.3968 57.8033 57.8033C56.3968 59.2098 54.4891 60 52.5 60H7.5C5.51088 60 3.60322 59.2098 2.1967 57.8033C0.790176 56.3968 0 54.4891 0 52.5V11.25C0 9.26088 0.790176 7.35322 2.1967 5.9467C3.60322 4.54018 5.51088 3.75 7.5 3.75H11.25V1.875C11.25 1.37772 11.4475 0.900806 11.7992 0.549175C12.1508 0.197544 12.6277 0 13.125 0ZM3.75 15V52.5C3.75 53.4946 4.14509 54.4484 4.84835 55.1516C5.55161 55.8549 6.50544 56.25 7.5 56.25H52.5C53.4946 56.25 54.4484 55.8549 55.1516 55.1516C55.8549 54.4484 56.25 53.4946 56.25 52.5V15H3.75Z" fill="#7A0E8B"/>
<path d="M21.4636 19.5653L21.5696 20.932L20.528 21.8226L21.8628 22.1457L22.3867 23.4111L23.1039 22.2438L24.4636 22.1344L23.578 21.0901L23.8961 19.7578L22.6299 20.2796L21.4636 19.5653ZM42.7508 20.1077C42.4861 20.1077 42.2323 20.2131 42.0452 20.4006C41.858 20.5881 41.7529 20.8425 41.7529 21.1076C41.7529 21.3728 41.858 21.6272 42.0452 21.8147C42.2323 22.0022 42.4861 22.1075 42.7508 22.1075C43.0155 22.1075 43.2693 22.0022 43.4565 21.8147C43.6436 21.6272 43.7487 21.3728 43.7487 21.1076C43.7487 20.8425 43.6436 20.5881 43.4565 20.4006C43.2693 20.2131 43.0155 20.1077 42.7508 20.1077ZM28.7672 20.7639C28.5026 20.7639 28.2487 20.8693 28.0616 21.0568C27.8744 21.2443 27.7693 21.4986 27.7693 21.7638C27.7693 22.029 27.8744 22.2833 28.0616 22.4709C28.2487 22.6584 28.5026 22.7637 28.7672 22.7637C29.0319 22.7637 29.2857 22.6584 29.4729 22.4709C29.66 22.2833 29.7652 22.029 29.7652 21.7638C29.7652 21.4986 29.66 21.2443 29.4729 21.0568C29.2857 20.8693 29.0319 20.7639 28.7672 20.7639ZM40.2373 21.1914C39.6634 21.3001 39.1333 21.6401 38.6218 22.0838C38.1478 22.4919 37.705 22.9999 37.3308 23.5493C36.1582 23.7374 34.9856 24.2161 34.1997 24.8697C33.1956 25.6946 32.3037 27.107 31.8172 28.5631C31.3556 28.7568 30.919 28.988 30.5635 29.238C29.5968 29.9192 29.0978 31.2253 28.7298 32.3627C28.3618 33.5063 28.1809 34.5062 28.1809 34.5062L29.2911 34.7062C29.2911 34.7062 29.4595 33.7688 29.7963 32.7126C30.1394 31.6565 30.7194 30.5066 31.2122 30.1629C31.2933 30.1067 31.3993 30.0442 31.4928 29.9879C31.4554 30.3441 31.4554 30.7004 31.5116 31.0378C31.6238 31.7502 32.0105 32.4314 32.6966 32.8001C33.1831 33.0626 33.732 33.0001 34.1935 32.8126C34.6551 32.6189 35.0667 32.3002 35.4222 31.9252C35.7777 31.5503 36.0709 31.1066 36.2455 30.6379C36.4202 30.1692 36.4825 29.638 36.258 29.1443H36.2517C36.0085 28.6193 35.5407 28.2819 35.0418 28.1381C34.5428 27.9944 34.0064 28.0006 33.47 28.0819C33.3764 28.0944 33.2891 28.1256 33.1956 28.1444C33.6571 27.157 34.3182 26.2258 34.9108 25.7321C35.2975 25.4134 35.9461 25.1072 36.6385 24.8822C36.5511 25.1197 36.4825 25.3572 36.4513 25.6009C36.3515 26.2571 36.495 26.9695 37.0189 27.457C37.3994 27.8069 37.9108 27.8632 38.3599 27.7882C38.8027 27.7132 39.2331 27.5132 39.6198 27.257C40.0065 26.9945 40.3495 26.6695 40.5928 26.2883C40.836 25.9071 40.9982 25.4197 40.8423 24.9322V24.926C40.6364 24.2967 40.125 23.8642 39.5574 23.6592C39.3142 23.5718 39.0584 23.5224 38.7965 23.493C38.9774 23.2893 39.1645 23.0987 39.3516 22.9356C39.7757 22.5706 40.2061 22.3419 40.4493 22.2963L40.2373 21.1914ZM24.7131 23.3818L23.7651 23.9792L25.9169 27.432L22.3991 27.6132L24.052 31.2253L25.0749 30.7504L24.1081 28.6506L27.8878 28.4568L24.7131 23.3818ZM38.2102 24.5885C38.5907 24.5823 38.9275 24.626 39.177 24.7198C39.5138 24.8385 39.6822 24.9885 39.7695 25.2697C39.7944 25.3384 39.7819 25.4759 39.651 25.6821C39.5138 25.8946 39.2705 26.1321 38.9961 26.3196C38.7154 26.5071 38.4035 26.6383 38.1728 26.6758C37.9358 26.7195 37.8297 26.6758 37.7798 26.632C37.5615 26.4321 37.4992 26.1821 37.5615 25.7634C37.6114 25.4259 37.7674 25.0197 37.9981 24.601C38.073 24.601 38.1416 24.5885 38.2102 24.5885ZM19.7353 25.7946C19.4706 25.7946 19.2168 25.9 19.0296 26.0875C18.8425 26.275 18.7373 26.5293 18.7373 26.7945C18.7373 27.0597 18.8425 27.314 19.0296 27.5016C19.2168 27.6891 19.4706 27.7944 19.7353 27.7944C19.8664 27.7945 19.9962 27.7687 20.1174 27.7185C20.2385 27.6683 20.3486 27.5946 20.4413 27.5018C20.5341 27.4089 20.6076 27.2987 20.6578 27.1773C20.708 27.056 20.7338 26.9259 20.7338 26.7945C20.7338 26.6632 20.708 26.5331 20.6578 26.4117C20.6076 26.2904 20.5341 26.1801 20.4413 26.0873C20.3486 25.9944 20.2385 25.9208 20.1174 25.8706C19.9962 25.8204 19.8664 25.7946 19.7353 25.7946ZM41.9462 28.1194L41.0481 29.1568L39.6884 29.0443L40.3994 30.2192L39.8693 31.4815L41.204 31.1691L42.2394 32.0627L42.3579 30.6941L43.5242 29.9817L42.2643 29.4505L41.9462 28.1194ZM34.2434 29.1505C34.4243 29.1568 34.5927 29.1818 34.7237 29.2193C34.9919 29.2943 35.1353 29.4067 35.2351 29.6192C35.2912 29.738 35.2975 29.9567 35.1914 30.2442C35.0854 30.5379 34.8671 30.8753 34.6052 31.1566C34.3432 31.4378 34.0251 31.6628 33.7631 31.769C33.5012 31.8752 33.339 31.869 33.233 31.8127H33.2268C32.865 31.6128 32.6904 31.3253 32.6218 30.8628C32.5594 30.4691 32.603 29.9692 32.734 29.4317C33.0396 29.3255 33.3453 29.238 33.6384 29.1943C33.8567 29.163 34.0563 29.1505 34.2434 29.1505ZM21.6195 32.3939C21.1704 32.3814 20.8898 32.4877 20.7151 32.6626C20.5405 32.8376 20.4345 33.1188 20.4469 33.5688C20.4594 34.025 20.6091 34.6249 20.896 35.2936C21.4698 36.6372 22.5987 38.2558 24.1144 39.7806C25.63 41.2992 27.2516 42.4241 28.5926 42.999C29.2537 43.2865 29.8525 43.4365 30.3078 43.449C30.7631 43.4677 31.0375 43.3552 31.2122 43.1803C31.3868 43.0053 31.4991 42.7303 31.4804 42.2741C31.4679 41.8179 31.3182 41.218 31.0313 40.5493C30.4575 39.2119 29.3348 37.5871 27.8192 36.0685C26.3036 34.5437 24.6819 33.4188 23.341 32.8439C22.6736 32.5564 22.0748 32.4064 21.6195 32.3939ZM36.0896 34.35L34.0313 37.7246L32.2163 35.981L31.4429 36.7934L34.2559 39.4994L36.364 36.0498L38.7778 38.0683L44.3475 35.6811L43.9109 34.6437L38.9649 36.7685L36.0896 34.35ZM19.638 35.1436L18.5378 38.762C21.1205 41.8304 24.1331 43.5552 27.4013 44.6801L28.7485 44.2676C28.5552 44.1989 28.3493 44.1177 28.1435 44.0302C26.6217 43.3802 24.9189 42.1804 23.3222 40.5743C21.7193 38.9682 20.5218 37.2621 19.8706 35.7373C19.7827 35.5373 19.7053 35.3374 19.638 35.1436ZM18.1523 40.0306L17.2785 42.9053C19.0804 44.5926 20.9584 45.355 22.9293 46.0425L25.6362 45.2175C22.9418 44.1177 20.397 42.5116 18.1523 40.0306ZM36.7632 40.1056C36.4985 40.1056 36.2447 40.2109 36.0575 40.3985C35.8704 40.586 35.7653 40.8403 35.7653 41.1055C35.7653 41.3707 35.8704 41.625 36.0575 41.8125C36.2447 42 36.4985 42.1054 36.7632 42.1054C37.0279 42.1054 37.2817 42 37.4688 41.8125C37.656 41.625 37.7611 41.3707 37.7611 41.1055C37.7611 40.8403 37.656 40.586 37.4688 40.3985C37.2817 40.2109 37.0279 40.1056 36.7632 40.1056ZM16.9174 44.0989L15.6519 48.261L21.158 46.5799C19.7378 46.0112 18.3026 45.2863 16.9174 44.0989Z" fill="#7A0E8B"/>
</svg>
